<?xml version="1.0" encoding="UTF-8" standalone="no"?>
<!DOCTYPE svg PUBLIC "-//W3C//DTD SVG 20010904//EN"
              "http://www.w3.org/TR/2001/REC-SVG-20010904/DTD/svg10.dtd">

<svg xmlns="http://www.w3.org/2000/svg"
     width="167.725mm" height="37.2534mm"
     viewBox="0 0 1981 440">
  <path id="Selection"
        fill="none" stroke="black" stroke-width="1"
        d="M 1390.00,338.00
           C 1390.00,338.00 1397.63,304.00 1397.63,304.00
             1397.63,304.00 1410.12,252.00 1410.12,252.00
             1410.12,252.00 1447.63,95.00 1447.63,95.00
             1447.63,95.00 1462.00,35.00 1462.00,35.00
             1462.00,35.00 1466.12,18.00 1466.12,18.00
             1466.12,18.00 1468.73,10.82 1468.73,10.82
             1468.73,10.82 1487.00,6.92 1487.00,6.92
             1487.00,6.92 1537.00,0.00 1537.00,0.00
             1537.00,0.00 1524.12,53.00 1524.12,53.00
             1524.12,53.00 1505.65,129.00 1505.65,129.00
             1505.65,129.00 1491.00,189.00 1491.00,189.00
             1507.66,177.44 1540.97,146.03 1556.00,131.00
             1556.00,131.00 1569.91,117.00 1569.91,117.00
             1572.21,114.54 1575.12,110.51 1578.01,109.02
             1580.38,107.81 1583.40,108.01 1586.00,108.00
             1586.00,108.00 1652.00,108.00 1652.00,108.00
             1649.11,114.77 1644.95,117.78 1640.09,123.00
             1640.09,123.00 1621.00,143.00 1621.00,143.00
             1621.00,143.00 1568.00,194.17 1568.00,194.17
             1561.58,199.94 1548.96,212.27 1542.00,216.00
             1542.00,216.00 1559.95,242.00 1559.95,242.00
             1571.43,260.12 1583.78,283.30 1592.28,303.00
             1596.42,312.59 1603.46,328.01 1605.00,338.00
             1605.00,338.00 1540.00,338.00 1540.00,338.00
             1537.85,338.00 1534.29,338.23 1532.51,336.98
             1530.71,335.72 1529.59,332.04 1528.81,330.00
             1528.81,330.00 1521.85,313.00 1521.85,313.00
             1510.57,286.75 1495.47,262.26 1479.00,239.00
             1479.00,239.00 1460.88,315.00 1460.88,315.00
             1460.88,315.00 1457.37,330.00 1457.37,330.00
             1457.37,330.00 1454.44,336.98 1454.44,336.98
             1454.44,336.98 1447.00,338.00 1447.00,338.00
             1447.00,338.00 1390.00,338.00 1390.00,338.00 Z
           M 172.00,4.46
           C 184.91,2.68 199.07,4.65 208.53,14.44
             221.79,28.14 216.72,53.99 204.83,66.99
             194.12,78.69 183.05,81.17 168.00,81.00
             141.63,80.69 129.23,57.57 137.55,34.00
             143.17,18.05 155.74,8.08 172.00,4.46 Z
           M 478.00,4.44
           C 490.45,2.84 504.50,4.90 513.68,14.30
             526.06,26.99 522.54,50.96 512.47,64.00
             501.76,77.88 489.57,81.19 473.00,81.00
             446.72,80.69 434.45,57.41 442.70,34.00
             448.43,17.75 461.26,7.57 478.00,4.44 Z
           M 1857.00,51.00
           C 1857.00,51.00 1926.00,41.00 1926.00,41.00
             1926.00,41.00 1914.12,90.00 1914.12,90.00
             1914.12,90.00 1910.00,108.00 1910.00,108.00
             1910.00,108.00 1981.00,108.00 1981.00,108.00
             1981.00,108.00 1969.00,162.00 1969.00,162.00
             1969.00,162.00 1906.00,162.00 1906.00,162.00
             1903.76,162.00 1900.21,161.79 1898.30,163.02
             1895.29,164.96 1893.49,175.33 1892.65,179.00
             1892.65,179.00 1881.00,228.00 1881.00,228.00
             1878.85,238.06 1873.16,256.41 1874.17,266.00
             1877.17,294.38 1912.46,289.57 1932.00,284.63
             1932.00,284.63 1945.00,281.00 1945.00,281.00
             1945.00,281.00 1949.00,319.00 1949.00,319.00
             1949.15,322.04 1950.67,329.06 1949.00,331.30
             1947.34,333.55 1938.90,335.59 1936.00,336.42
             1923.64,339.95 1910.92,342.98 1898.00,343.00
             1898.00,343.00 1874.00,343.00 1874.00,343.00
             1851.75,342.97 1827.56,334.44 1816.31,314.00
             1813.45,308.79 1811.72,303.78 1810.42,298.00
             1809.38,293.33 1807.86,281.62 1808.04,277.00
             1809.17,247.79 1817.41,219.29 1824.12,191.00
             1824.12,191.00 1843.88,107.00 1843.88,107.00
             1843.88,107.00 1857.00,51.00 1857.00,51.00 Z
           M 296.00,102.21
           C 296.00,102.21 308.00,102.21 308.00,102.21
             340.80,102.39 370.42,115.57 385.63,146.00
             395.16,165.06 396.03,183.29 396.00,204.00
             395.99,212.32 394.43,222.79 392.80,231.00
             384.44,273.06 359.96,314.21 320.00,333.11
             297.33,343.84 281.32,344.28 257.00,344.00
             208.37,343.43 176.22,303.88 176.00,257.00
             176.00,257.00 176.00,242.00 176.00,242.00
             176.02,231.80 178.16,218.93 180.63,209.00
             191.47,165.44 217.19,129.34 259.00,110.86
             272.74,104.79 281.77,104.45 296.00,102.21 Z
           M 1776.00,280.00
           C 1776.00,280.00 1779.42,316.00 1779.42,316.00
             1779.76,318.57 1781.14,329.59 1779.97,331.30
             1778.06,334.08 1763.80,337.18 1760.00,338.13
             1734.00,344.62 1724.01,344.04 1698.00,344.00
             1665.02,343.95 1633.46,327.67 1619.31,297.00
             1611.16,279.35 1609.78,260.13 1610.00,241.00
             1610.28,217.42 1619.10,190.33 1630.72,170.00
             1655.52,126.63 1700.32,101.42 1750.00,102.00
             1768.26,102.22 1788.47,108.56 1801.89,121.17
             1828.14,145.64 1824.51,193.62 1801.89,219.00
             1787.30,235.25 1765.78,244.43 1745.00,249.63
             1723.95,254.89 1696.72,257.00 1675.00,257.00
             1676.81,263.18 1677.95,268.61 1681.79,274.00
             1684.95,278.43 1689.06,282.32 1694.00,284.77
             1709.79,292.20 1741.21,288.97 1758.00,284.77
             1758.00,284.77 1776.00,280.00 1776.00,280.00 Z
           M 470.00,338.00
           C 470.00,338.00 481.88,289.00 481.88,289.00
             481.88,289.00 507.12,185.00 507.12,185.00
             507.12,185.00 518.13,139.00 518.13,139.00
             518.13,139.00 523.16,120.28 523.16,120.28
             525.07,117.37 529.82,116.67 533.00,115.66
             533.00,115.66 561.00,108.20 561.00,108.20
             581.84,104.03 598.85,102.97 620.00,103.00
             641.97,103.03 665.38,108.71 680.96,125.00
             698.26,143.09 698.27,163.82 698.00,187.00
             697.88,197.34 693.01,217.45 690.37,228.00
             690.37,228.00 676.42,286.00 676.42,286.00
             676.42,286.00 667.87,322.00 667.87,322.00
             667.24,324.53 665.02,334.99 663.84,336.43
             662.19,338.42 658.36,338.00 656.00,338.00
             656.00,338.00 598.00,338.00 598.00,338.00
             598.00,338.00 605.58,305.00 605.58,305.00
             605.58,305.00 621.87,236.00 621.87,236.00
             624.76,224.43 632.22,194.71 631.49,184.00
             630.35,167.42 621.56,159.03 605.00,159.08
             605.00,159.08 591.00,159.08 591.00,159.08
             591.00,159.08 578.00,161.00 578.00,161.00
             578.00,161.00 567.88,206.00 567.88,206.00
             567.88,206.00 546.12,298.00 546.12,298.00
             546.12,298.00 537.00,338.00 537.00,338.00
             537.00,338.00 470.00,338.00 470.00,338.00 Z
           M 685.00,338.00
           C 685.00,338.00 698.12,281.00 698.12,281.00
             698.12,281.00 724.37,172.00 724.37,172.00
             724.37,172.00 733.65,133.00 733.65,133.00
             734.55,129.06 735.85,120.51 739.28,118.30
             739.28,118.30 767.00,109.63 767.00,109.63
             790.32,103.66 831.72,100.05 855.00,105.89
             862.54,107.79 869.40,110.72 876.00,114.81
             878.90,116.61 885.05,121.69 888.00,121.81
             890.50,121.90 906.02,113.81 910.00,112.20
             924.34,106.41 937.42,103.02 953.00,103.00
             985.19,102.95 1016.76,111.27 1028.91,145.00
             1034.29,159.92 1034.18,172.51 1034.00,188.00
             1033.85,200.66 1029.01,219.44 1025.87,232.00
             1025.87,232.00 1010.63,296.00 1010.63,296.00
             1010.63,296.00 1001.00,338.00 1001.00,338.00
             1001.00,338.00 934.00,338.00 934.00,338.00
             934.00,338.00 942.88,301.00 942.88,301.00
             942.88,301.00 956.65,243.00 956.65,243.00
             960.07,228.08 967.85,201.36 967.25,187.00
             966.81,176.16 963.08,164.79 952.00,160.56
             947.46,158.83 942.77,158.95 938.00,159.00
             929.81,159.10 924.32,161.36 917.00,164.70
             914.57,165.80 911.46,166.83 910.02,169.22
             908.36,171.98 909.02,184.15 909.00,188.00
             908.93,202.59 903.90,218.83 900.65,233.00
             900.65,233.00 882.58,309.00 882.58,309.00
             882.58,309.00 876.00,338.00 876.00,338.00
             876.00,338.00 810.00,338.00 810.00,338.00
             810.00,338.00 818.12,301.00 818.12,301.00
             818.12,301.00 833.88,234.00 833.88,234.00
             836.98,220.94 841.69,203.11 842.68,190.00
             843.58,178.06 837.94,164.20 826.00,160.11
             821.53,158.57 813.90,158.95 809.00,159.00
             805.45,159.05 797.05,159.74 794.30,161.85
             791.58,163.95 790.67,169.70 789.88,173.00
             789.88,173.00 783.58,200.00 783.58,200.00
             783.58,200.00 762.63,288.00 762.63,288.00
             762.63,288.00 751.00,338.00 751.00,338.00
             751.00,338.00 685.00,338.00 685.00,338.00 Z
           M 1175.00,322.00
           C 1164.00,330.51 1151.46,337.79 1138.00,341.57
             1127.13,344.63 1119.03,344.02 1108.00,344.00
             1089.33,343.97 1068.90,335.79 1056.17,321.99
             1040.99,305.52 1035.50,284.78 1033.91,263.00
             1033.91,263.00 1033.00,251.00 1033.00,251.00
             1032.90,189.15 1066.55,132.85 1126.00,111.05
             1144.46,104.28 1162.53,102.78 1182.00,103.00
             1182.00,103.00 1192.00,103.91 1192.00,103.91
             1209.80,105.13 1226.76,107.20 1244.00,112.14
             1248.00,113.29 1261.97,117.44 1263.31,121.22
             1264.03,123.26 1262.89,126.92 1262.37,129.00
             1262.37,129.00 1258.65,144.00 1258.65,144.00
             1258.65,144.00 1244.37,204.00 1244.37,204.00
             1240.35,220.09 1232.02,251.59 1232.00,267.00
             1232.00,267.00 1232.00,281.00 1232.00,281.00
             1232.02,290.99 1234.76,307.30 1237.42,317.00
             1237.42,317.00 1242.00,334.00 1242.00,334.00
             1242.00,334.00 1200.00,340.00 1200.00,340.00
             1196.94,340.42 1186.71,342.42 1184.39,341.41
             1180.55,339.74 1175.76,326.17 1175.00,322.00 Z
           M 1244.00,338.00
           C 1244.00,338.00 1254.58,291.00 1254.58,291.00
             1254.58,291.00 1281.12,181.00 1281.12,181.00
             1281.12,181.00 1291.13,139.00 1291.13,139.00
             1291.88,135.99 1294.67,123.22 1295.98,121.51
             1297.72,119.23 1303.25,117.93 1306.00,117.14
             1306.00,117.14 1329.00,110.87 1329.00,110.87
             1358.09,103.60 1371.73,103.86 1401.00,104.00
             1411.99,104.05 1429.03,107.39 1439.00,112.00
             1439.00,112.00 1425.95,148.00 1425.95,148.00
             1425.95,148.00 1420.00,165.00 1420.00,165.00
             1404.95,163.74 1403.84,158.96 1377.00,159.00
             1371.58,159.01 1355.11,159.88 1351.93,164.28
             1350.32,166.51 1347.72,178.65 1347.00,182.00
             1347.00,182.00 1339.13,215.00 1339.13,215.00
             1339.13,215.00 1321.63,288.00 1321.63,288.00
             1321.63,288.00 1310.00,338.00 1310.00,338.00
             1310.00,338.00 1244.00,338.00 1244.00,338.00 Z
           M 129.00,108.00
           C 129.00,108.00 195.00,108.00 195.00,108.00
             194.43,114.77 191.52,124.08 189.88,131.00
             189.88,131.00 179.37,175.00 179.37,175.00
             179.37,175.00 152.37,287.00 152.37,287.00
             143.96,321.07 138.48,360.61 116.76,389.00
             98.84,412.43 72.21,419.13 44.00,419.00
             33.09,418.95 21.57,416.77 11.00,414.13
             8.23,413.43 1.81,412.42 0.61,409.58
             -0.56,406.81 2.98,398.06 4.00,395.00
             4.00,395.00 16.00,358.00 16.00,358.00
             32.68,361.81 49.55,368.71 63.91,353.96
             72.00,345.64 74.50,334.83 77.13,324.00
             77.13,324.00 86.87,284.00 86.87,284.00
             86.87,284.00 114.88,167.00 114.88,167.00
             114.88,167.00 129.00,108.00 129.00,108.00 Z
           M 434.00,108.00
           C 434.00,108.00 500.00,108.00 500.00,108.00
             500.00,108.00 486.65,166.00 486.65,166.00
             486.65,166.00 457.12,290.00 457.12,290.00
             457.12,290.00 446.00,338.00 446.00,338.00
             446.00,338.00 380.00,338.00 380.00,338.00
             380.00,338.00 396.12,269.00 396.12,269.00
             396.12,269.00 421.88,160.00 421.88,160.00
             421.88,160.00 434.00,108.00 434.00,108.00 Z
           M 1677.00,211.00
           C 1689.10,211.00 1701.07,210.46 1713.00,208.20
             1726.19,205.69 1745.40,201.36 1754.47,190.83
             1761.74,182.40 1762.60,165.72 1752.96,158.65
             1748.25,155.20 1742.57,155.01 1737.00,155.00
             1704.47,154.95 1683.08,180.89 1677.00,211.00 Z
           M 294.00,158.36
           C 289.52,159.03 285.11,159.98 281.00,161.98
             253.51,175.38 240.68,216.30 241.00,245.00
             241.14,256.78 243.92,275.97 254.02,283.36
             261.13,288.58 271.57,288.94 280.00,287.84
             292.03,286.28 301.02,278.97 308.70,270.00
             322.24,254.18 327.99,233.28 330.16,213.00
             330.76,207.44 331.38,203.76 330.83,198.00
             329.09,179.74 326.55,161.84 305.00,158.36
             301.27,157.85 297.74,157.93 294.00,158.36 Z
           M 1189.00,159.00
           C 1173.04,158.27 1160.30,155.54 1145.00,162.98
             1117.09,176.55 1099.05,209.36 1099.00,240.00
             1099.00,240.00 1099.00,251.00 1099.00,251.00
             1099.10,259.11 1101.68,271.19 1106.13,277.99
             1116.29,293.51 1140.46,290.59 1154.00,281.91
             1157.40,279.73 1163.17,275.57 1164.98,272.00
             1166.16,269.67 1167.17,257.60 1167.75,254.00
             1167.75,254.00 1175.87,214.00 1175.87,214.00
             1175.87,214.00 1189.00,159.00 1189.00,159.00 Z" />
</svg>
